<svg width="24" height="27" viewBox="0 0 24 27" fill="none" xmlns="http://www.w3.org/2000/svg">
<path d="M19.6263 13.92C19.6138 11.7617 20.6491 10.1327 22.7446 8.93302C21.5721 7.35107 19.8009 6.4807 17.4622 6.31016C15.2483 6.1455 12.8285 7.5275 11.9429 7.5275C11.0075 7.5275 8.86209 6.36897 7.17823 6.36897C3.69825 6.4219 0 8.98595 0 14.2023C0 15.7431 0.299353 17.3348 0.898058 18.9775C1.69633 21.1358 4.5776 26.4286 7.5836 26.3404C9.15521 26.3051 10.2653 25.2877 12.3109 25.2877C14.2941 25.2877 15.3231 26.3404 17.0756 26.3404C20.1065 26.2992 22.7134 21.4886 23.4742 19.3245C19.408 17.5191 19.6263 14.0317 19.6263 13.92ZM16.0965 4.26362C17.799 2.35822 17.6431 0.623371 17.5932 0C16.0902 0.082332 14.3502 0.964461 13.3586 2.05242C12.2672 3.21683 11.6249 4.65764 11.7621 6.28076C13.3898 6.39837 14.8741 5.61034 16.0965 4.26362Z" fill="black"/>
</svg>
