<svg width="25" height="25" viewBox="0 0 25 25" fill="none" xmlns="http://www.w3.org/2000/svg">
<path fill-rule="evenodd" clip-rule="evenodd" d="M2.87699 3.73324C2.87943 3.73324 2.81846 3.79665 2.74163 3.87226C2.44651 4.15884 1.83554 4.75518 1.82938 6.00272C1.81969 7.74781 2.96723 10.988 8.49276 16.5123C13.9927 22.0098 17.228 23.1708 18.9768 23.1708H19.0024C20.2499 23.1647 20.845 22.5525 21.1328 22.2586C21.2206 22.1683 21.2914 22.1025 21.3414 22.061C22.556 20.8391 23.1779 19.9293 23.1719 19.3464C23.1633 18.7513 22.423 18.0477 21.3999 17.0745C21.0743 16.7648 20.7206 16.4282 20.3475 16.055C19.3804 15.0904 18.9011 15.255 17.8475 15.6257C16.3902 16.1367 14.3902 16.8318 11.283 13.7233C8.17082 10.6136 8.86715 8.61609 9.37689 7.1588C9.74518 6.10516 9.91347 5.62468 8.94519 4.6564C8.56593 4.27835 8.22569 3.91982 7.91228 3.59056C6.94522 2.5735 6.24767 1.83815 5.65622 1.82961H5.64646C5.06233 1.82961 4.15502 2.45399 2.87089 3.73812C2.87455 3.73446 2.87699 3.73324 2.87699 3.73324ZM18.978 25C15.939 25 11.9769 22.5805 7.2001 17.8062C2.40505 13.0124 -0.018088 9.03804 0.000101648 5.99296C0.0111799 3.9808 1.06604 2.95033 1.46238 2.56375C1.48311 2.53814 1.55384 2.46863 1.57823 2.44424C3.32698 0.694261 4.50624 -0.0130456 5.67939 0.000181872C7.04156 0.0186613 8.01106 1.03816 9.23787 2.3296C9.54153 2.64911 9.87079 2.99667 10.2379 3.36251C12.0183 5.14298 11.511 6.59539 11.1037 7.76123C10.6598 9.03316 10.2757 10.1307 12.5756 12.4307C14.878 14.7306 15.9756 14.3465 17.2426 13.8989C18.4097 13.4916 19.8584 12.9819 21.6413 14.7623C22.0023 15.1233 22.345 15.4489 22.6608 15.7501C23.9584 16.983 24.9828 17.9574 25.0001 19.3233C25.0145 20.4879 24.3072 21.6744 22.5608 23.422L21.7877 22.8976L22.4413 23.5366C22.0548 23.9329 21.0255 24.989 19.0121 25H18.978Z" fill="#8D8D8D"/>
</svg>
