<svg width="25" height="25" viewBox="0 0 25 25" fill="none" xmlns="http://www.w3.org/2000/svg">
<path d="M16.6467 0.497639C17.3763 0.823589 17.8921 1.4111 18.3545 2.27243L18.5069 2.5697L19.0722 3.78641L19.0908 3.82038L19.1077 3.84996L19.1557 3.92363C19.4133 4.23864 19.8443 4.42893 20.1287 4.42893C22.7347 4.42893 24.8632 6.7262 24.9937 9.6142L25 9.89547V18.0265C25 21.7756 22.3623 24.8351 19.0569 24.9936L18.7875 25H6.2125C2.87167 25 0.146838 22.0396 0.00573964 18.329L0 18.0265V9.89547C0 6.8768 2.18122 4.42893 4.87125 4.42893C5.15472 4.42893 5.58635 4.23836 5.8443 3.92363L5.85319 3.91187L5.86431 3.89552L5.92859 3.78484L6.49227 2.57009C6.99471 1.54508 7.54129 0.859869 8.35236 0.497507C9.83861 -0.165858 15.1616 -0.165858 16.6467 0.497639ZM9.04544 2.45311C8.7687 2.57675 8.51816 2.86294 8.25077 3.35907L8.13502 3.58468L7.65395 4.62874L7.53554 4.86927C7.4367 5.05382 7.33783 5.20961 7.22494 5.34768C6.64941 6.04988 5.82308 6.45545 5.08852 6.52339L4.87125 6.5336L4.66613 6.54136C3.17497 6.65454 1.98276 7.99246 1.88191 9.66535L1.875 9.89547V18.0265C1.875 20.6255 3.68968 22.7494 5.97452 22.8881L6.2125 22.8953H18.7875C21.1024 22.8953 22.995 20.8575 23.1186 18.2936L23.125 18.0265V9.89547C23.125 8.11662 21.8928 6.65969 20.3339 6.54136L20.1287 6.5336L19.9111 6.52339C19.1754 6.45544 18.3491 6.04976 17.7743 5.34675C17.6629 5.2105 17.5646 5.05583 17.4663 4.87284L17.4427 4.82747L17.4146 4.77113L17.2694 4.46561L16.8646 3.58507C16.5912 3.02788 16.3408 2.68736 16.0705 2.51622L15.9533 2.45311L15.8041 2.39745C14.5177 1.98931 10.043 2.00786 9.04544 2.45311ZM12.4996 8.69819C15.2124 8.69819 17.4109 11.166 17.4109 14.211C17.4109 17.2561 15.2124 19.7239 12.4996 19.7239C9.78686 19.7239 7.58838 17.2561 7.58838 14.211C7.58838 11.166 9.78686 8.69819 12.4996 8.69819ZM12.4996 10.8029C10.8224 10.8029 9.46338 12.3283 9.46338 14.211C9.46338 16.0937 10.8224 17.6192 12.4996 17.6192C14.1769 17.6192 15.5359 16.0937 15.5359 14.211C15.5359 12.3283 14.1769 10.8029 12.4996 10.8029ZM19.3804 7.71741C20.0707 7.71741 20.6304 8.34561 20.6304 9.12053C20.6304 9.84009 20.1478 10.4332 19.5262 10.5142L19.3804 10.5236C18.6788 10.5236 18.1191 9.89545 18.1191 9.12053C18.1191 8.40096 18.6017 7.8079 19.2233 7.72685L19.3804 7.71741Z" fill="#8D8D8D"/>
</svg>
