<svg width="25" height="18" viewBox="0 0 25 18" fill="none" xmlns="http://www.w3.org/2000/svg">
<path fill-rule="evenodd" clip-rule="evenodd" d="M7.30719 0.00131717L7.87162 0.00201812C7.96811 0.00214998 8.06567 0.00228886 8.16413 0.002434L8.764 0.00337419C10.0802 0.00554843 11.4822 0.00853025 12.5507 0.0106793L13.0186 0.011606C13.0922 0.0117486 13.1633 0.0118848 13.232 0.0120138C15.9321 -0.171454 18.3694 1.76773 18.5866 4.36996C18.5887 4.39665 18.5904 4.54811 18.5919 4.82363L21.083 2.84961C21.8078 2.27482 22.7835 2.16219 23.6295 2.54886C24.4756 2.93786 25.0012 3.74141 25 4.64713L24.9856 13.1807C24.9844 14.0864 24.4576 14.89 23.6127 15.2755C23.2815 15.4276 22.9311 15.5008 22.5831 15.5008C22.0418 15.5008 21.5078 15.3208 21.0674 14.9713L18.5975 12.9882C18.5975 13.0218 18.5975 13.0555 18.5974 13.0893C18.6478 14.3155 18.1966 15.4965 17.3254 16.4138C16.4097 17.3788 15.1473 17.9396 13.772 17.9942C13.7487 17.9958 13.6172 17.9969 13.4015 17.9976L12.9274 17.9984C12.7425 17.9985 12.5324 17.9985 12.3022 17.9984L11.2871 17.9975C11.1956 17.9974 11.1027 17.9972 11.0085 17.9971L10.4295 17.9962C9.05024 17.994 7.49653 17.9905 6.29196 17.9879L5.79862 17.9869C5.64232 17.9866 5.49466 17.9863 5.35719 17.9861C5.22998 17.9954 5.10278 18 4.97557 18C2.43865 18.0012 0.225739 16.12 0.0169292 13.6525L0.0167423 13.65L0.0156212 13.627C0.0155372 13.6245 0.0154515 13.6217 0.0153643 13.6187L0.0145402 13.5821C0.0144447 13.5769 0.0143479 13.5713 0.01425 13.5653L0.013342 13.4976C0.0132384 13.4885 0.0131341 13.4789 0.0130291 13.4686L0.012069 13.3588C0.011961 13.3446 0.0118527 13.3296 0.0117441 13.3139L0.011091 13.2102C0.0109819 13.1913 0.0108729 13.1716 0.0107641 13.1509L0.00979 12.9408C0.00968277 12.9146 0.00957599 12.8874 0.00946976 12.8591L0.00853172 12.5764C0.00842982 12.5416 0.00832882 12.5057 0.00822881 12.4687L0.00735877 12.1022C0.00726577 12.0577 0.0071741 12.0119 0.00708387 11.9647L0.0060776 11.3326C0.0060007 11.2741 0.0059257 11.2142 0.0058527 11.1528L0.00492154 10.1116C0.00487132 10.0339 0.00482365 9.95445 0.00477865 9.87327L0.00476153 5.32381C0.00481298 5.18583 0.00486865 5.04556 0.00492865 4.90294C-0.0526742 3.70576 0.396148 2.5167 1.27219 1.59123C2.18664 0.625122 3.4479 0.061945 4.82436 0.00504668C4.8429 0.00375647 4.93061 0.00278164 5.07528 0.00207442L5.33348 0.00120831C5.38312 0.00109541 5.43595 0.00099775 5.49176 0.000914573L7.03755 0.00104106C7.12584 0.00112408 7.21578 0.00121637 7.30719 0.00131717ZM13.2968 1.75148C11.7816 1.74935 9.92903 1.74678 8.34805 1.74511L7.51631 1.7443C7.38339 1.74418 7.25364 1.74407 7.1275 1.74397L5.04051 1.74404C4.96197 1.74438 4.91117 1.7449 4.89157 1.74567C4.00592 1.78167 3.18868 2.14512 2.59946 2.76752C2.04983 3.34927 1.76661 4.09243 1.80382 4.86346L1.80481 9.3491C1.80486 9.44812 1.80492 9.54646 1.80498 9.64399L1.80607 11.0305C1.80616 11.1168 1.80626 11.2016 1.80635 11.2849L1.80697 11.7645C1.80708 11.841 1.80719 11.9156 1.80731 11.9883L1.80848 12.5863C1.80976 13.1246 1.81137 13.4738 1.81342 13.541C1.95022 15.1493 3.5079 16.379 5.29119 16.2466C5.47977 16.2469 5.67354 16.2472 5.87133 16.2475L6.4756 16.2484C6.98728 16.2492 7.5168 16.2501 8.04596 16.2509L8.67961 16.2519C8.99518 16.2525 9.308 16.2529 9.61413 16.2534L10.2163 16.2543C10.3148 16.2544 10.4122 16.2546 10.5085 16.2547L11.0708 16.2554C11.1618 16.2555 11.2512 16.2556 11.3391 16.2557L13.4578 16.2557C13.5963 16.2552 13.6834 16.2545 13.7096 16.2536C14.5916 16.2187 15.4101 15.8564 15.9993 15.2352C16.5501 14.6558 16.8334 13.9126 16.7986 13.1451L16.7975 13.1259L16.7973 7.51017C16.7972 7.41896 16.7972 7.32893 16.7971 7.24021L16.7962 6.24642C16.7961 6.17019 16.796 6.09579 16.7959 6.02333L16.7949 5.42719C16.7945 5.24829 16.7941 5.09038 16.7936 4.95689L16.7926 4.72351C16.7919 4.59101 16.7911 4.50604 16.7902 4.47679C16.6545 2.86041 15.0897 1.61562 13.2968 1.75148ZM22.2231 4.19775L18.597 7.06043C18.5971 7.2031 18.5973 7.3514 18.5974 7.50534L18.5981 10.4172L22.2087 13.6255C22.4739 13.8345 22.7403 13.7485 22.8435 13.6998C22.9467 13.6533 23.1855 13.5082 23.1855 13.1784L23.1999 4.64481C23.2011 4.31503 22.9611 4.16988 22.8579 4.12228C22.7559 4.07583 22.4859 3.98874 22.2231 4.19775Z" fill="#8D8D8D"/>
</svg>
